<svg width="24" height="24" viewBox="0 0 24 24" fill="none" xmlns="http://www.w3.org/2000/svg">
<path d="M24 17.9997C24 18.7069 23.719 19.3852 23.219 19.8853C22.7189 20.3854 22.0406 20.6663 21.3333 20.6663H2.66667C1.95942 20.6663 1.28115 20.3854 0.781049 19.8853C0.280952 19.3852 0 18.7069 0 17.9997V5.99967C0 5.29243 0.280952 4.61415 0.781049 4.11406C1.28115 3.61396 1.95942 3.33301 2.66667 3.33301H21.3333C22.0406 3.33301 22.7189 3.61396 23.219 4.11406C23.719 4.61415 24 5.29243 24 5.99967V17.9997Z" fill="#009B3A"/>
<path d="M21.8187 11.9997L12 19.4157L2.18134 11.9997L12 4.58301L21.8187 11.9997Z" fill="#FEDF01"/>
<path d="M11.984 16.2542C14.3618 16.2542 16.2893 14.3267 16.2893 11.9489C16.2893 9.57112 14.3618 7.64355 11.984 7.64355C9.60623 7.64355 7.67867 9.57112 7.67867 11.9489C7.67867 14.3267 9.60623 16.2542 11.984 16.2542Z" fill="#002776"/>
<path d="M8.18466 9.92487C7.96099 10.3462 7.80955 10.8021 7.73666 11.2735C10.4 11.0802 14.0147 12.5342 15.566 14.3369C15.834 13.9342 16.0327 13.4835 16.1547 13.0009C14.24 11.1289 10.8767 9.91421 8.18466 9.92487Z" fill="#CBE9D4"/>
<path d="M8 12.1553H8.66667V12.8219H8V12.1553ZM8.66667 13.4886H9.33333V14.1553H8.66667V13.4886Z" fill="#88C9F9"/>
<path d="M10 12.1556H10.6667V12.8223H10V12.1556ZM11.3333 12.8223H12V13.4889H11.3333V12.8223ZM14 14.1556H14.6667V14.8223H14V14.1556ZM12 14.8223H12.6667V15.4889H12V14.8223ZM14 10.8223H14.6667V11.4889H14V10.8223Z" fill="#55ACEE"/>
<path d="M12.6667 13.4883H13.3333V14.1549H12.6667V13.4883Z" fill="#3B88C3"/>
</svg>
