<svg width="24" height="24" viewBox="0 0 24 24" fill="none" xmlns="http://www.w3.org/2000/svg">
<path d="M23.63 4.66732C23.168 3.87332 22.318 3.33398 21.3333 3.33398H12V4.66732H23.63ZM0 16.6673H24V18.0007H0V16.6673ZM12 11.334H24V12.6673H12V11.334ZM12 8.66732H24V10.0007H12V8.66732ZM0 14.0007H24V15.334H0V14.0007ZM2.66667 20.6673H21.3333C22.318 20.6673 23.168 20.128 23.63 19.334H0.37C0.832 20.128 1.682 20.6673 2.66667 20.6673ZM12 6.00065H24V7.33398H12V6.00065Z" fill="#B22334"/>
<path d="M0.0453333 18.452C0.0564444 18.5142 0.0695556 18.5758 0.0846667 18.6367C0.102444 18.7033 0.122889 18.7691 0.146 18.834C0.205333 19.0067 0.277333 19.1734 0.368 19.3293L0.37 19.3327H23.63L23.6313 19.33C23.7217 19.1733 23.7958 19.0078 23.8527 18.836C23.8959 18.7107 23.9298 18.5824 23.954 18.452C23.9813 18.3054 24 18.1547 24 17.9993H0C0 18.1547 0.0186667 18.3047 0.0453333 18.452ZM0 15.3327H24V16.666H0V15.3327ZM0 12.666V13.9993H24V12.666H12H0ZM12 9.99935H24V11.3327H12V9.99935ZM12 7.33268H24V8.66602H12V7.33268ZM0.0853333 5.36202C0.102 5.29402 0.125333 5.22935 0.146667 5.16402C0.123664 5.2292 0.103204 5.29525 0.0853333 5.36202ZM12 5.99935H24C24 5.84402 23.9813 5.69335 23.954 5.54602C23.9307 5.41542 23.8966 5.28698 23.852 5.16202C23.7951 4.98955 23.7207 4.82336 23.63 4.66602H12V5.99935Z" fill="#EEEEEE"/>
<path d="M12 3.33398H2.66667C1.95942 3.33398 1.28115 3.61494 0.781049 4.11503C0.280952 4.61513 0 5.29341 0 6.00065L0 12.6673H12V3.33398Z" fill="#3C3B6E"/>
<path d="M1.334 5.15002L1.746 5.44935L1.58867 5.93268L2 5.63402L2.412 5.93268L2.25467 5.44935L2.66667 5.15002H2.15733L2 4.66602L1.84333 5.15002H1.334ZM2.66733 6.48335L3.07933 6.78268L2.922 7.26602L3.33333 6.96735L3.74533 7.26602L3.588 6.78268L4 6.48335H3.49067L3.33333 5.99935L3.17667 6.48335H2.66733ZM5.334 6.48335L5.746 6.78268L5.58867 7.26602L6 6.96735L6.412 7.26602L6.25467 6.78268L6.66667 6.48335H6.15733L6 5.99935L5.84333 6.48335H5.334ZM8.00067 6.48335L8.41267 6.78268L8.25533 7.26602L8.66667 6.96735L9.07867 7.26602L8.92133 6.78268L9.33333 6.48335H8.824L8.66667 5.99935L8.51 6.48335H8.00067ZM2.66733 9.15002L3.07933 9.44935L2.922 9.93268L3.33333 9.63402L3.74533 9.93268L3.588 9.44935L4 9.15002H3.49067L3.33333 8.66602L3.17667 9.15002H2.66733ZM5.334 9.15002L5.746 9.44935L5.58867 9.93268L6 9.63402L6.412 9.93268L6.25467 9.44935L6.66667 9.15002H6.15733L6 8.66602L5.84333 9.15002H5.334ZM8.00067 9.15002L8.41267 9.44935L8.25533 9.93268L8.66667 9.63402L9.07867 9.93268L8.92133 9.44935L9.33333 9.15002H8.824L8.66667 8.66602L8.51 9.15002H8.00067ZM4.00067 5.15002L4.41267 5.44935L4.25533 5.93268L4.66667 5.63402L5.07867 5.93268L4.92133 5.44935L5.33333 5.15002H4.824L4.66667 4.66602L4.51 5.15002H4.00067ZM6.66733 5.15002L7.07933 5.44935L6.922 5.93268L7.33333 5.63402L7.74533 5.93268L7.588 5.44935L8 5.15002H7.49067L7.33333 4.66602L7.17667 5.15002H6.66733ZM9.334 5.15002L9.746 5.44935L9.58867 5.93268L10 5.63402L10.412 5.93268L10.2547 5.44935L10.6667 5.15002H10.1573L10 4.66602L9.84333 5.15002H9.334ZM1.334 7.81668L1.746 8.11602L1.58867 8.59935L2 8.30068L2.412 8.59935L2.25467 8.11602L2.66667 7.81668H2.15733L2 7.33268L1.84333 7.81668H1.334ZM4.25533 8.59935L4.66667 8.30068L5.07867 8.59935L4.92133 8.11602L5.33333 7.81668H4.824L4.66667 7.33268L4.51 7.81668H4.00067L4.41267 8.11602L4.25533 8.59935ZM6.66733 7.81668L7.07933 8.11602L6.922 8.59935L7.33333 8.30068L7.74533 8.59935L7.588 8.11602L8 7.81668H7.49067L7.33333 7.33268L7.17667 7.81668H6.66733ZM9.334 7.81668L9.746 8.11602L9.58867 8.59935L10 8.30068L10.412 8.59935L10.2547 8.11602L10.6667 7.81668H10.1573L10 7.33268L9.84333 7.81668H9.334ZM1.334 10.4833L1.746 10.7827L1.58867 11.266L2 10.9673L2.412 11.266L2.25467 10.7827L2.66667 10.4833H2.15733L2 9.99935L1.84333 10.4833H1.334ZM4.25533 11.266L4.66667 10.9673L5.07867 11.266L4.92133 10.7827L5.33333 10.4833H4.824L4.66667 9.99935L4.51 10.4833H4.00067L4.41267 10.7827L4.25533 11.266ZM6.66733 10.4833L7.07933 10.7827L6.922 11.266L7.33333 10.9673L7.74533 11.266L7.588 10.7827L8 10.4833H7.49067L7.33333 9.99935L7.17667 10.4833H6.66733ZM9.334 10.4833L9.746 10.7827L9.58867 11.266L10 10.9673L10.412 11.266L10.2547 10.7827L10.6667 10.4833H10.1573L10 9.99935L9.84333 10.4833H9.334Z" fill="white"/>
</svg>
