<svg width="24" height="24" viewBox="0 0 24 24" fill="none" xmlns="http://www.w3.org/2000/svg">
<path d="M24 18.0007C24 18.7079 23.719 19.3862 23.219 19.8863C22.7189 20.3864 22.0406 20.6673 21.3333 20.6673H2.66667C1.95942 20.6673 1.28115 20.3864 0.781049 19.8863C0.280952 19.3862 0 18.7079 0 18.0007V6.00065C0 5.29341 0.280952 4.61513 0.781049 4.11503C1.28115 3.61494 1.95942 3.33398 2.66667 3.33398H21.3333C22.0406 3.33398 22.7189 3.61494 23.219 4.11503C23.719 4.61513 24 5.29341 24 6.00065V18.0007Z" fill="#006600"/>
<path d="M21.3333 3.33398H10V20.6673H21.3333C22.0406 20.6673 22.7189 20.3864 23.219 19.8863C23.719 19.3862 24 18.7079 24 18.0007V6.00065C24 5.29341 23.719 4.61513 23.219 4.11503C22.7189 3.61494 22.0406 3.33398 21.3333 3.33398Z" fill="#D52B1E"/>
<path d="M10 6.66602C8.58551 6.66602 7.22896 7.22792 6.22876 8.22811C5.22857 9.22831 4.66666 10.5849 4.66666 11.9993C4.66666 13.4138 5.22857 14.7704 6.22876 15.7706C7.22896 16.7708 8.58551 17.3327 10 17.3327C11.4145 17.3327 12.771 16.7708 13.7712 15.7706C14.7714 14.7704 15.3333 13.4138 15.3333 11.9993C15.3333 10.5849 14.7714 9.22831 13.7712 8.22811C12.771 7.22792 11.4145 6.66602 10 6.66602ZM5.92466 9.72868L6.99266 10.7967L5.35266 11.6167C5.40559 10.9536 5.60068 10.3097 5.92466 9.72868ZM5.35266 12.3813L8.286 13.8527L6.482 15.0553L6.49133 15.0693C5.83246 14.3192 5.43314 13.3765 5.35266 12.3813ZM9.33333 16.6127C8.72222 16.5254 8.13472 16.3169 7.60533 15.9993H9.33333V16.6127ZM9.33333 15.3327H7.26733L9.33333 13.9553V15.3327ZM9.33333 13.154L8.92866 13.424L6.07866 11.9993L7.48933 11.294L9.33333 13.1373V13.154ZM9.33333 12.1947L6.97133 9.83268L9.33333 10.226V12.1947ZM9.33333 9.53335L6.37866 9.05802C7.11785 8.14848 8.17302 7.55137 9.33333 7.38602V9.53335ZM14.0753 9.72868C14.3994 10.3099 14.5945 10.954 14.6473 11.6173L13.0073 10.7973L14.0753 9.72868ZM10.6667 7.38602C11.8265 7.55263 12.8813 8.1495 13.6213 9.05802L10.6667 9.53335V7.38602ZM10.6667 10.226L13.0287 9.83202L10.6667 12.1947V10.226ZM10.6667 13.1373L12.51 11.294L13.9213 11.9993L11.072 13.424L10.6667 13.154V13.1373ZM10.6667 16.6127V15.9993H12.3947C11.8653 16.3169 11.2778 16.5254 10.6667 16.6127ZM10.6667 15.3327V13.9553L12.7327 15.3327H10.6667ZM13.5093 15.0693L13.5187 15.0553L11.7147 13.8527L14.648 12.3813C14.5666 13.3763 14.1674 14.3187 13.5093 15.0693Z" fill="#FFCC4D"/>
<path d="M7.33334 8.66602V13.3327C7.33334 14.0399 7.61429 14.7182 8.11438 15.2183C8.61448 15.7184 9.29276 15.9993 10 15.9993C10.7072 15.9993 11.3855 15.7184 11.8856 15.2183C12.3857 14.7182 12.6667 14.0399 12.6667 13.3327V8.66602H7.33334Z" fill="#D52B1E"/>
<path d="M8 9.33398V13.334C8 13.8644 8.21071 14.3731 8.58579 14.7482C8.96086 15.1233 9.46957 15.334 10 15.334C10.5304 15.334 11.0391 15.1233 11.4142 14.7482C11.7893 14.3731 12 13.8644 12 13.334V9.33398H8Z" fill="white"/>
<path d="M8.66666 11.334H11.3333V12.6673H8.66666V11.334Z" fill="#829ACD"/>
<path d="M9.33334 10.666H10.6667V13.3327H9.33334V10.666Z" fill="#829ACD"/>
<path d="M8 11.334H8.66667V12.6673H8V11.334ZM9.33333 11.334H10.6667V12.6673H9.33333V11.334ZM11.3333 11.334H12V12.6673H11.3333V11.334ZM9.33333 13.334H10.6667V14.6673H9.33333V13.334ZM9.33333 9.33398H10.6667V10.6673H9.33333V9.33398Z" fill="#003399"/>
</svg>
